<svg xmlns="http://www.w3.org/2000/svg" xmlns:xlink="http://www.w3.org/1999/xlink" width="500" zoomAndPan="magnify" viewBox="0 0 375 374.999991" height="500" preserveAspectRatio="xMidYMid meet" version="1.0"><rect x="-37.5" width="450" fill="#ffffff" y="-37.499999" height="449.999989" fill-opacity="1"/><rect x="-37.5" width="450" fill="#ffffff" y="-37.499999" height="449.999989" fill-opacity="1"/><path fill="#ffffff" d="M -56.453125 1.460938 C -56.40625 33.359375 -56.296875 58.546875 -56.207031 57.4375 C -54.773438 39.765625 -50.589844 24.816406 -42.800781 9.53125 C -27.789062 -19.917969 -0.425781 -42.417969 31.714844 -51.742188 C 37.878906 -53.53125 47.96875 -55.539062 53.140625 -56.007812 C 55.503906 -56.222656 31.792969 -56.429688 0.449219 -56.46875 L -56.539062 -56.539062 L -56.453125 1.460938 M 321.777344 -56.007812 C 327.417969 -55.464844 333.9375 -54.242188 340.582031 -52.480469 C 389.648438 -39.46875 425.613281 2.582031 430.699219 52.886719 C 431.097656 56.855469 431.214844 96.34375 431.105469 190.871094 L 430.953125 323.292969 L 429.773438 329.546875 C 424.753906 356.226562 413.449219 377.882812 395.019531 396.140625 C 379.523438 411.492188 359.183594 422.785156 337.90625 427.855469 C 324.164062 431.125 335.941406 430.867188 191.375 431.074219 C 96.316406 431.207031 58.355469 431.101562 54.152344 430.6875 C 11.425781 426.5 -25.15625 401.15625 -43.9375 362.734375 C -51.035156 348.214844 -54.839844 334.109375 -56.207031 317.230469 C -56.296875 316.117188 -56.40625 341.421875 -56.453125 373.460938 L -56.539062 431.710938 L 187.554688 431.710938 C 321.808594 431.710938 431.753906 431.539062 431.882812 431.332031 C 432.007812 431.121094 431.988281 321.265625 431.832031 187.207031 L 431.554688 -56.539062 L 374.644531 -56.464844 C 343.34375 -56.425781 319.554688 -56.21875 321.777344 -56.007812 M 214.011719 58.484375 L 199.242188 63.710938 L 196.925781 62.6875 C 193.425781 61.136719 189.566406 62.328125 187.550781 65.582031 C 185.605469 68.722656 186.714844 74.335938 189.578125 75.871094 C 190.617188 76.425781 190.617188 76.488281 190.617188 128.71875 L 190.617188 181.015625 L 205.402344 181.019531 L 220.1875 181.019531 L 221.023438 182.492188 C 223.542969 186.921875 230.640625 187.179688 233.742188 182.949219 C 235.144531 181.035156 235.386719 177.167969 234.238281 174.960938 C 231.746094 170.152344 224.867188 169.457031 221.546875 173.675781 L 220.546875 174.949219 L 196.671875 174.949219 L 196.804688 156.628906 L 196.9375 138.304688 L 205.613281 138.167969 L 214.289062 138.027344 L 215.347656 139.519531 C 216.679688 141.386719 220.296875 142.835938 222.566406 142.40625 C 227.703125 141.4375 230.585938 135.953125 228.292969 131.515625 C 225.636719 126.382812 219.46875 125.625 215.746094 129.976562 L 214.023438 131.988281 L 196.683594 131.988281 L 196.683594 77.246094 L 198.699219 75.519531 C 200.089844 74.332031 200.929688 73.066406 201.398438 71.460938 L 202.078125 69.128906 L 213.910156 64.953125 C 220.421875 62.652344 226.113281 60.761719 226.5625 60.75 C 227.066406 60.730469 229.734375 64.101562 233.464844 69.464844 C 241.707031 81.304688 241.730469 80.097656 233.085938 88.761719 L 226.300781 95.558594 L 223.496094 95.300781 C 221.179688 95.085938 220.347656 95.242188 218.722656 96.203125 C 213.71875 99.15625 213.617188 106.246094 218.539062 109.246094 C 221.042969 110.773438 224.972656 110.625 226.988281 108.929688 C 229.066406 107.183594 230.042969 105.195312 230.042969 102.726562 C 230.042969 100.773438 230.289062 100.476562 237.699219 93.601562 C 244.824219 86.992188 245.496094 86.5 247.328125 86.5 C 252.988281 86.5 256.664062 80.855469 254.375 75.679688 C 252.96875 72.496094 250.839844 71.242188 247.226562 71.472656 C 245.699219 71.570312 244.085938 71.816406 243.640625 72.019531 C 243.011719 72.3125 241.382812 70.300781 236.148438 62.765625 C 232.472656 57.472656 229.308594 53.167969 229.121094 53.199219 C 228.933594 53.230469 222.132812 55.609375 214.011719 58.484375 M 142.347656 54.394531 C 126.042969 57.011719 115.632812 68.203125 117.8125 80.773438 C 118.140625 82.671875 118.941406 85.546875 119.59375 87.160156 L 120.773438 90.097656 L 119.179688 89.6875 C 118.300781 89.460938 115.761719 89.285156 113.539062 89.289062 C 108.492188 89.304688 105.121094 90.757812 101.34375 94.542969 C 96.335938 99.566406 93.933594 105.933594 93.894531 114.296875 C 93.867188 119.675781 93.996094 120.203125 96.917969 126.746094 C 97.074219 127.097656 96.324219 127.441406 94.960938 127.644531 C 91.601562 128.148438 86.800781 130.648438 84.207031 133.242188 C 80.996094 136.453125 78.074219 142.679688 77.324219 147.910156 C 76.847656 151.214844 76.878906 152.621094 77.488281 155.628906 L 78.234375 159.308594 L 76.570312 160.335938 C 71.242188 163.628906 67.292969 171.691406 67.292969 179.269531 C 67.292969 182.980469 68.835938 189.355469 70.621094 193.019531 C 72.054688 195.960938 76.066406 200.617188 78.105469 201.707031 C 79.777344 202.601562 79.769531 203.058594 78.078125 203.480469 C 75.605469 204.101562 71.050781 209.40625 68.613281 214.503906 C 65.765625 220.453125 65.070312 223.511719 65.140625 229.789062 C 65.242188 239.242188 68.507812 247.875 74.183594 253.667969 C 77.65625 257.214844 79.835938 258.347656 83.195312 258.347656 C 84.457031 258.347656 85.488281 258.402344 85.488281 258.472656 C 85.488281 258.542969 85.007812 259.851562 84.417969 261.378906 C 82.851562 265.460938 82.941406 270.832031 84.644531 274.648438 C 86.160156 278.050781 90.117188 282.433594 94.160156 285.183594 C 97.535156 287.480469 104.523438 291.007812 109.519531 292.9375 L 113.085938 294.3125 L 114.289062 297.855469 C 120.078125 314.847656 136.230469 324.152344 154.082031 320.765625 C 161.535156 319.351562 167.105469 316.574219 171.511719 312.074219 C 174.839844 308.675781 176.289062 305.183594 176.929688 299.035156 C 178.832031 280.746094 179.589844 233.863281 179.402344 145.886719 L 179.246094 73.105469 L 177.875 70.769531 C 175.46875 66.679688 167.503906 60.0625 161.109375 56.835938 C 155.101562 53.804688 150.085938 53.152344 142.347656 54.394531 M 141.085938 60.472656 C 134.082031 62.039062 126.976562 66.84375 124.640625 71.589844 C 123.160156 74.601562 123.28125 80.777344 124.894531 84.476562 C 126.652344 88.503906 128.882812 91.871094 132.683594 96.226562 C 136.332031 100.410156 136.839844 102.046875 134.90625 103.402344 C 133.175781 104.613281 132.519531 104.402344 128.445312 101.328125 C 118.675781 93.957031 110.589844 93.09375 105.277344 98.859375 C 100.417969 104.128906 98.359375 112.867188 100.386719 119.640625 C 102.15625 125.5625 114.863281 145.9375 122.273438 154.730469 C 128.660156 162.316406 132.339844 164.605469 139.070312 165.1875 C 141.527344 165.402344 143.480469 165.191406 146.804688 164.359375 C 150.390625 163.460938 151.394531 163.367188 152.007812 163.875 C 153.34375 164.984375 153.753906 166.210938 153.234375 167.566406 C 152.851562 168.582031 152 169.078125 149.066406 170 C 146.03125 170.953125 144.335938 171.148438 139.453125 171.101562 C 136.195312 171.070312 133.636719 171.21875 133.769531 171.433594 C 133.90625 171.652344 132.796875 174.519531 131.3125 177.8125 C 129.828125 181.101562 127.855469 185.957031 126.929688 188.597656 C 126.003906 191.238281 124.910156 193.796875 124.496094 194.28125 C 122.863281 196.203125 119.855469 194.691406 119.855469 191.945312 C 119.855469 190.050781 122.945312 181.925781 126.359375 174.851562 L 129.207031 168.941406 L 127.691406 168.066406 C 122.25 164.921875 110.746094 150.621094 102.660156 136.949219 C 100.882812 133.945312 100.171875 133.523438 96.894531 133.511719 C 90.707031 133.488281 84.128906 141.09375 83.152344 149.390625 C 82.308594 156.578125 86.394531 164.082031 93.890625 169.105469 C 95.523438 170.199219 97.144531 171.4375 97.492188 171.855469 C 99.007812 173.679688 97.664062 176.464844 95.273438 176.464844 C 93.054688 176.464844 85.492188 170.726562 82.707031 166.933594 C 81.875 165.796875 80.945312 164.859375 80.644531 164.851562 C 79.574219 164.828125 76.230469 168.671875 74.941406 171.410156 C 72.324219 176.953125 73.4375 186.769531 77.3125 192.382812 C 80.382812 196.824219 86.941406 200.132812 94.332031 200.96875 C 98.820312 201.476562 100.648438 202.167969 101.175781 203.554688 C 101.730469 205.019531 101.074219 207.027344 99.890625 207.480469 C 99.429688 207.660156 95.8125 207.804688 91.855469 207.804688 C 83.011719 207.804688 80.304688 208.472656 77.769531 211.28125 C 75.410156 213.890625 73.671875 216.960938 72.304688 220.945312 C 70.644531 225.761719 70.746094 233.324219 72.542969 238.925781 C 74.789062 245.933594 79.84375 252.28125 83.175781 252.28125 C 86.386719 252.28125 94.761719 246.3125 100.039062 240.269531 C 104.667969 234.964844 105.085938 234.589844 106.410156 234.589844 C 107.816406 234.589844 109.242188 236.253906 109.242188 237.890625 C 109.242188 238.523438 106.894531 241.566406 103.382812 245.488281 C 92.648438 257.460938 89.972656 261.699219 89.617188 267.269531 C 89.457031 269.773438 89.644531 270.898438 90.53125 272.726562 C 92.808594 277.429688 99.773438 282.230469 110.851562 286.726562 C 114.265625 288.113281 117.335938 289.476562 117.671875 289.757812 C 118.007812 290.035156 118.867188 292.019531 119.582031 294.167969 C 121.007812 298.445312 123.714844 303.355469 126.355469 306.4375 C 128.53125 308.976562 133.175781 312.132812 136.625 313.410156 C 139.3125 314.410156 145.097656 315.523438 145.699219 315.164062 C 146.371094 314.757812 147.34375 302.703125 147.375 294.484375 C 147.402344 286.375 147.335938 285.753906 146.175781 283.394531 C 145.433594 281.890625 142.769531 278.679688 139.476562 275.324219 C 133.816406 269.554688 133.179688 268.351562 134.933594 266.765625 C 136.898438 264.984375 138.3125 265.644531 143.375 270.707031 C 148.457031 275.789062 151.816406 280.453125 152.832031 283.828125 C 153.625 286.484375 153.585938 301.65625 152.761719 309.074219 C 152.425781 312.09375 152.265625 314.675781 152.402344 314.816406 C 152.839844 315.253906 159.929688 312.914062 162.25 311.570312 C 165.363281 309.769531 168.289062 307.007812 169.40625 304.816406 C 171.015625 301.65625 171.878906 290.527344 172.726562 261.878906 L 173.0625 250.503906 L 162.507812 250.507812 C 150.914062 250.511719 148.367188 250.101562 142.175781 247.214844 C 136.253906 244.453125 129.613281 236.492188 124.617188 226.15625 C 121.710938 220.148438 121.449219 218.84375 122.867188 217.429688 C 123.574219 216.722656 124.445312 216.390625 125.320312 216.492188 C 126.515625 216.628906 127.078125 217.449219 129.964844 223.238281 C 133.910156 231.148438 136.472656 234.957031 140.257812 238.53125 C 144.710938 242.730469 148.777344 244.082031 158.269531 244.511719 C 163.566406 244.753906 172.109375 244.214844 172.65625 243.605469 C 172.738281 243.511719 172.972656 234.996094 173.171875 224.683594 L 173.535156 205.933594 L 168.304688 205.644531 C 159.96875 205.183594 149.417969 202.042969 147.9375 199.585938 C 147.234375 198.417969 148.546875 195.984375 149.992188 195.773438 C 150.5625 195.691406 152.714844 196.1875 154.777344 196.875 C 160.121094 198.65625 165.753906 199.714844 169.875 199.714844 L 173.433594 199.714844 L 173.433594 152.457031 L 171.976562 149.425781 C 171.179688 147.757812 169.757812 145.667969 168.820312 144.78125 C 164.464844 140.667969 156.695312 137.4375 149.117188 136.589844 C 143.542969 135.964844 141.933594 134.390625 143.941406 131.523438 C 144.742188 130.382812 144.964844 130.34375 149.125 130.632812 C 156.875 131.167969 166.554688 134.742188 171.296875 138.820312 L 173.453125 140.675781 L 173.316406 107.558594 C 173.160156 69.28125 173.941406 74.070312 166.859375 67.941406 C 164.402344 65.820312 160.875 63.402344 158.402344 62.148438 C 154.382812 60.109375 153.90625 59.988281 149.265625 59.867188 C 146.335938 59.789062 143.050781 60.03125 141.085938 60.472656 M 265.9375 88.394531 C 263.351562 89.695312 261.886719 92.175781 261.867188 95.292969 L 261.851562 97.871094 L 254.527344 104.1875 C 250.5 107.664062 246.925781 110.425781 246.582031 110.328125 C 241.226562 108.765625 236.105469 112.230469 236.105469 117.414062 C 236.105469 119.960938 236.742188 121.441406 238.589844 123.183594 L 240.152344 124.65625 L 240.152344 151.078125 L 238.960938 151.855469 C 236.25 153.632812 235.289062 158.6875 237.097656 161.65625 C 239.78125 166.058594 245.527344 166.777344 249.144531 163.15625 C 250.644531 161.65625 250.964844 160.941406 251.15625 158.640625 C 251.429688 155.3125 250.476562 153.1875 247.976562 151.566406 L 246.230469 150.4375 L 246.214844 124.9375 L 247.65625 124.191406 C 249.746094 123.113281 250.898438 121.035156 251.230469 117.757812 L 251.523438 114.878906 L 258.769531 108.550781 C 265.351562 102.804688 266.128906 102.269531 267.269531 102.703125 C 267.957031 102.964844 269.160156 103.179688 269.941406 103.179688 C 271.15625 103.179688 272.496094 104.503906 279.253906 112.402344 L 287.152344 121.625 L 286.84375 123.972656 C 286.203125 128.835938 288.960938 132.449219 293.621094 132.851562 C 298.191406 133.242188 301.816406 129.976562 301.8125 125.46875 C 301.808594 121.070312 298.570312 117.839844 294.164062 117.835938 L 291.824219 117.835938 L 284.058594 108.722656 C 279.167969 102.984375 276.355469 99.285156 276.472656 98.738281 C 277.179688 95.375 277.035156 92.730469 276.0625 91.167969 C 273.921875 87.738281 269.601562 86.554688 265.9375 88.394531 M 262.898438 133.9375 C 260.917969 135 258.851562 138.441406 258.851562 140.675781 C 258.851562 144.160156 261.238281 147.121094 264.941406 148.226562 C 266.511719 148.699219 267.285156 148.644531 269.308594 147.917969 L 271.765625 147.035156 L 287.167969 154.234375 C 295.640625 158.191406 302.863281 161.664062 303.222656 161.949219 C 303.6875 162.320312 303.828125 163.828125 303.726562 167.316406 L 303.582031 172.167969 L 279.199219 172.441406 L 272.453125 179.347656 C 265.710938 186.25 265.707031 186.253906 263.328125 186.289062 C 260.636719 186.328125 258.765625 187.453125 256.957031 190.109375 C 253.816406 194.722656 257.566406 201.4375 263.273438 201.417969 C 266.308594 201.40625 268.554688 200.242188 269.980469 197.929688 C 270.898438 196.445312 271.058594 195.582031 270.882812 193.109375 L 270.664062 190.09375 L 276.175781 184.292969 L 281.683594 178.488281 L 303.835938 178.488281 L 303.835938 199.851562 L 300.042969 204.03125 L 296.246094 208.210938 L 293.34375 207.972656 C 289.734375 207.675781 287.402344 208.804688 285.773438 211.644531 C 283.644531 215.363281 284.628906 219.417969 288.332031 222.160156 C 290.300781 223.621094 294.621094 223.628906 296.566406 222.175781 C 299.121094 220.269531 300.042969 218.554688 300.085938 215.625 L 300.125 212.910156 L 305.019531 207.625 L 309.910156 202.339844 L 309.78125 180.191406 L 309.648438 158.046875 L 292.21875 149.882812 L 274.792969 141.722656 L 274.394531 139.808594 C 273.207031 134.09375 267.777344 131.320312 262.898438 133.9375 M 190.109375 194.28125 C 187.429688 196.105469 186.378906 197.886719 186.378906 200.609375 C 186.378906 203.425781 187.535156 205.671875 189.714844 207.074219 L 191.234375 208.054688 L 190.539062 294.992188 L 201.726562 306.867188 C 207.878906 313.402344 213.480469 319.257812 214.175781 319.882812 L 215.441406 321.019531 L 255.804688 321.019531 L 258.972656 316.660156 C 272.261719 298.351562 272.324219 298.277344 274.382812 298.273438 C 279.925781 298.269531 283.484375 291.136719 280.171875 286.664062 C 278.296875 284.125 276.023438 283.003906 273.222656 283.226562 C 270.082031 283.480469 268.308594 284.695312 266.886719 287.566406 C 265.828125 289.703125 265.8125 290.230469 266.707031 294.230469 C 266.941406 295.269531 265.722656 297.226562 259.84375 305.234375 L 252.695312 314.976562 L 231.8125 314.703125 L 231.675781 301.328125 L 231.542969 287.953125 L 233.074219 286.753906 C 239.019531 282.101562 236.121094 273.003906 228.695312 273.003906 C 222.746094 273.003906 219.140625 279.007812 222.019531 284.128906 C 222.609375 285.183594 223.632812 286.332031 224.292969 286.683594 L 225.492188 287.328125 L 225.492188 314.953125 L 221.710938 314.953125 C 217.246094 314.953125 218.828125 316.199219 205.851562 302.496094 L 196.683594 292.8125 L 196.691406 272.925781 C 196.695312 261.988281 196.835938 252.527344 197 251.902344 C 197.300781 250.789062 197.46875 250.765625 204.480469 250.765625 L 211.65625 250.765625 L 212.8125 252.328125 C 214.984375 255.265625 219.734375 256.203125 222.84375 254.304688 C 227.726562 251.328125 227.726562 244.136719 222.84375 241.160156 C 219.574219 239.164062 214.648438 240.246094 212.574219 243.410156 C 211.734375 244.691406 211.691406 244.699219 204.460938 244.699219 L 197.1875 244.699219 L 197.1875 207.917969 L 198.496094 207.0625 C 199.96875 206.097656 201.710938 202.65625 201.726562 200.679688 C 201.746094 198.585938 199.625 195.121094 197.691406 194.082031 C 195.28125 192.792969 192.179688 192.875 190.109375 194.28125 M 222.457031 200.851562 C 221.535156 201.480469 220.320312 202.613281 219.757812 203.378906 C 218.394531 205.21875 218.375 209.039062 219.722656 211.378906 C 220.847656 213.339844 224.386719 215.371094 226.738281 215.410156 C 228.089844 215.429688 228.832031 216.152344 232.976562 221.472656 L 237.679688 227.515625 L 256.324219 227.515625 L 256.324219 238.058594 L 254.800781 239.144531 C 248.90625 243.34375 252.058594 252.78125 259.355469 252.78125 C 265.0625 252.78125 268.59375 247.078125 266.117188 241.859375 C 265.667969 240.910156 264.644531 239.664062 263.84375 239.09375 C 262.402344 238.066406 262.390625 238.019531 262.390625 232.789062 L 262.390625 227.515625 L 274.320312 227.515625 L 286.59375 236.433594 C 293.34375 241.339844 298.976562 245.632812 299.109375 245.980469 C 299.242188 246.324219 297.457031 251.125 295.144531 256.648438 L 290.9375 266.6875 L 276.949219 266.820312 L 262.964844 266.953125 L 260.824219 264.667969 C 256.484375 260.039062 250.625 260.757812 247.792969 266.273438 C 246.941406 267.933594 247.109375 271.035156 248.164062 273 C 249.171875 274.875 252.636719 277.046875 254.625 277.046875 C 256.640625 277.046875 259.832031 275.480469 260.914062 273.957031 L 261.953125 272.5 L 278.542969 272.5 C 291.34375 272.5 295.191406 272.355469 295.386719 271.867188 C 295.523438 271.519531 298.078125 265.320312 301.0625 258.09375 C 304.046875 250.867188 306.589844 244.691406 306.710938 244.375 C 306.835938 244.058594 300.265625 238.957031 292.117188 233.042969 C 283.96875 227.128906 277.015625 222.074219 276.664062 221.804688 C 276.292969 221.519531 268.714844 221.296875 258.234375 221.257812 L 240.4375 221.195312 L 236.769531 216.648438 C 234.363281 213.660156 233.21875 211.839844 233.4375 211.339844 C 233.621094 210.925781 233.851562 209.332031 233.949219 207.804688 C 234.085938 205.667969 233.886719 204.640625 233.097656 203.375 C 230.84375 199.753906 225.820312 198.5625 222.457031 200.851562 M -56.296875 373.585938 C -56.296875 405.691406 -56.234375 418.828125 -56.160156 402.773438 C -56.085938 386.71875 -56.085938 360.449219 -56.160156 344.398438 C -56.234375 328.34375 -56.296875 341.476562 -56.296875 373.585938 " fill-opacity="1" fill-rule="evenodd"/><path fill="#ee2a47" d="M 53.140625 -56.015625 C 40 -54.804688 24.140625 -50.128906 10.9375 -43.570312 C -25.429688 -25.503906 -50.128906 9.542969 -55.617188 50.867188 C -56.605469 58.332031 -56.605469 316.351562 -55.613281 323.800781 C -51.859375 352.023438 -38.984375 377.949219 -19.328125 396.855469 C 0.761719 416.179688 26.34375 427.960938 54.152344 430.6875 C 58.355469 431.101562 96.316406 431.207031 191.375 431.074219 C 335.941406 430.867188 324.164062 431.125 337.90625 427.855469 C 359.183594 422.785156 379.523438 411.492188 395.019531 396.140625 C 413.449219 377.882812 424.753906 356.226562 429.773438 329.546875 L 430.953125 323.292969 L 431.105469 190.871094 C 431.214844 96.34375 431.097656 56.855469 430.699219 52.886719 C 425.613281 2.582031 389.621094 -39.496094 340.582031 -52.476562 C 337.46875 -53.300781 332.304688 -54.488281 329.105469 -55.113281 L 323.292969 -56.253906 L 190.367188 -56.332031 C 117.253906 -56.375 55.503906 -56.230469 53.140625 -56.015625 M 214.011719 58.484375 L 199.242188 63.710938 L 196.925781 62.6875 C 193.425781 61.136719 189.566406 62.328125 187.550781 65.582031 C 185.605469 68.722656 186.714844 74.335938 189.578125 75.871094 C 190.617188 76.425781 190.617188 76.488281 190.617188 128.71875 L 190.617188 181.015625 L 205.402344 181.019531 L 220.1875 181.019531 L 221.023438 182.492188 C 223.542969 186.921875 230.640625 187.179688 233.742188 182.949219 C 235.144531 181.035156 235.386719 177.167969 234.238281 174.960938 C 231.746094 170.152344 224.867188 169.457031 221.546875 173.675781 L 220.546875 174.949219 L 196.671875 174.949219 L 196.804688 156.628906 L 196.9375 138.304688 L 205.613281 138.167969 L 214.289062 138.027344 L 215.347656 139.519531 C 216.679688 141.386719 220.296875 142.835938 222.566406 142.40625 C 227.703125 141.4375 230.585938 135.953125 228.292969 131.515625 C 225.636719 126.382812 219.46875 125.625 215.746094 129.976562 L 214.023438 131.988281 L 196.683594 131.988281 L 196.683594 77.246094 L 198.699219 75.519531 C 200.089844 74.332031 200.929688 73.066406 201.398438 71.460938 L 202.078125 69.128906 L 213.910156 64.953125 C 220.421875 62.652344 226.113281 60.761719 226.5625 60.75 C 227.066406 60.730469 229.734375 64.101562 233.464844 69.464844 C 241.707031 81.304688 241.730469 80.097656 233.085938 88.761719 L 226.300781 95.558594 L 223.496094 95.300781 C 221.179688 95.085938 220.347656 95.242188 218.722656 96.203125 C 213.71875 99.15625 213.617188 106.246094 218.539062 109.246094 C 221.042969 110.773438 224.972656 110.625 226.988281 108.929688 C 229.066406 107.183594 230.042969 105.195312 230.042969 102.726562 C 230.042969 100.773438 230.289062 100.476562 237.699219 93.601562 C 244.824219 86.992188 245.496094 86.5 247.328125 86.5 C 252.988281 86.5 256.664062 80.855469 254.375 75.679688 C 252.96875 72.496094 250.839844 71.242188 247.226562 71.472656 C 245.699219 71.570312 244.085938 71.816406 243.640625 72.019531 C 243.011719 72.3125 241.382812 70.300781 236.148438 62.765625 C 232.472656 57.472656 229.308594 53.167969 229.121094 53.199219 C 228.933594 53.230469 222.132812 55.609375 214.011719 58.484375 M 142.347656 54.394531 C 126.042969 57.011719 115.632812 68.203125 117.8125 80.773438 C 118.140625 82.671875 118.941406 85.546875 119.59375 87.160156 L 120.773438 90.097656 L 119.179688 89.6875 C 118.300781 89.460938 115.761719 89.285156 113.539062 89.289062 C 108.492188 89.304688 105.121094 90.757812 101.34375 94.542969 C 96.335938 99.566406 93.933594 105.933594 93.894531 114.296875 C 93.867188 119.675781 93.996094 120.203125 96.917969 126.746094 C 97.074219 127.097656 96.324219 127.441406 94.960938 127.644531 C 91.601562 128.148438 86.800781 130.648438 84.207031 133.242188 C 80.996094 136.453125 78.074219 142.679688 77.324219 147.910156 C 76.847656 151.214844 76.878906 152.621094 77.488281 155.628906 L 78.234375 159.308594 L 76.570312 160.335938 C 71.242188 163.628906 67.292969 171.691406 67.292969 179.269531 C 67.292969 182.980469 68.835938 189.355469 70.621094 193.019531 C 72.054688 195.960938 76.066406 200.617188 78.105469 201.707031 C 79.777344 202.601562 79.769531 203.058594 78.078125 203.480469 C 75.605469 204.101562 71.050781 209.40625 68.613281 214.503906 C 65.765625 220.453125 65.070312 223.511719 65.140625 229.789062 C 65.242188 239.242188 68.507812 247.875 74.183594 253.667969 C 77.65625 257.214844 79.835938 258.347656 83.195312 258.347656 C 84.457031 258.347656 85.488281 258.402344 85.488281 258.472656 C 85.488281 258.542969 85.007812 259.851562 84.417969 261.378906 C 82.851562 265.460938 82.941406 270.832031 84.644531 274.648438 C 86.160156 278.050781 90.117188 282.433594 94.160156 285.183594 C 97.535156 287.480469 104.523438 291.007812 109.519531 292.9375 L 113.085938 294.3125 L 114.289062 297.855469 C 120.078125 314.847656 136.230469 324.152344 154.082031 320.765625 C 161.535156 319.351562 167.105469 316.574219 171.511719 312.074219 C 174.839844 308.675781 176.289062 305.183594 176.929688 299.035156 C 178.832031 280.746094 179.589844 233.863281 179.402344 145.886719 L 179.246094 73.105469 L 177.875 70.769531 C 175.46875 66.679688 167.503906 60.0625 161.109375 56.835938 C 155.101562 53.804688 150.085938 53.152344 142.347656 54.394531 M 141.085938 60.472656 C 134.082031 62.039062 126.976562 66.84375 124.640625 71.589844 C 123.160156 74.601562 123.28125 80.777344 124.894531 84.476562 C 126.652344 88.503906 128.882812 91.871094 132.683594 96.226562 C 136.332031 100.410156 136.839844 102.046875 134.90625 103.402344 C 133.175781 104.613281 132.519531 104.402344 128.445312 101.328125 C 118.675781 93.957031 110.589844 93.09375 105.277344 98.859375 C 100.417969 104.128906 98.359375 112.867188 100.386719 119.640625 C 102.15625 125.5625 114.863281 145.9375 122.273438 154.730469 C 128.660156 162.316406 132.339844 164.605469 139.070312 165.1875 C 141.527344 165.402344 143.480469 165.191406 146.804688 164.359375 C 150.390625 163.460938 151.394531 163.367188 152.007812 163.875 C 153.34375 164.984375 153.753906 166.210938 153.234375 167.566406 C 152.851562 168.582031 152 169.078125 149.066406 170 C 146.03125 170.953125 144.335938 171.148438 139.453125 171.101562 C 136.195312 171.070312 133.636719 171.21875 133.769531 171.433594 C 133.90625 171.652344 132.796875 174.519531 131.3125 177.8125 C 129.828125 181.101562 127.855469 185.957031 126.929688 188.597656 C 126.003906 191.238281 124.910156 193.796875 124.496094 194.28125 C 122.863281 196.203125 119.855469 194.691406 119.855469 191.945312 C 119.855469 190.050781 122.945312 181.925781 126.359375 174.851562 L 129.207031 168.941406 L 127.691406 168.066406 C 122.25 164.921875 110.746094 150.621094 102.660156 136.949219 C 100.882812 133.945312 100.171875 133.523438 96.894531 133.511719 C 90.707031 133.488281 84.128906 141.09375 83.152344 149.390625 C 82.308594 156.578125 86.394531 164.082031 93.890625 169.105469 C 95.523438 170.199219 97.144531 171.4375 97.492188 171.855469 C 99.007812 173.679688 97.664062 176.464844 95.273438 176.464844 C 93.054688 176.464844 85.492188 170.726562 82.707031 166.933594 C 81.875 165.796875 80.945312 164.859375 80.644531 164.851562 C 79.574219 164.828125 76.230469 168.671875 74.941406 171.410156 C 72.324219 176.953125 73.4375 186.769531 77.3125 192.382812 C 80.382812 196.824219 86.941406 200.132812 94.332031 200.96875 C 98.820312 201.476562 100.648438 202.167969 101.175781 203.554688 C 101.730469 205.019531 101.074219 207.027344 99.890625 207.480469 C 99.429688 207.660156 95.8125 207.804688 91.855469 207.804688 C 83.011719 207.804688 80.304688 208.472656 77.769531 211.28125 C 75.410156 213.890625 73.671875 216.960938 72.304688 220.945312 C 70.644531 225.761719 70.746094 233.324219 72.542969 238.925781 C 74.789062 245.933594 79.84375 252.28125 83.175781 252.28125 C 86.386719 252.28125 94.761719 246.3125 100.039062 240.269531 C 104.667969 234.964844 105.085938 234.589844 106.410156 234.589844 C 107.816406 234.589844 109.242188 236.253906 109.242188 237.890625 C 109.242188 238.523438 106.894531 241.566406 103.382812 245.488281 C 92.648438 257.460938 89.972656 261.699219 89.617188 267.269531 C 89.457031 269.773438 89.644531 270.898438 90.53125 272.726562 C 92.808594 277.429688 99.773438 282.230469 110.851562 286.726562 C 114.265625 288.113281 117.335938 289.476562 117.671875 289.757812 C 118.007812 290.035156 118.867188 292.019531 119.582031 294.167969 C 121.007812 298.445312 123.714844 303.355469 126.355469 306.4375 C 128.53125 308.976562 133.175781 312.132812 136.625 313.410156 C 139.3125 314.410156 145.097656 315.523438 145.699219 315.164062 C 146.371094 314.757812 147.34375 302.703125 147.375 294.484375 C 147.402344 286.375 147.335938 285.753906 146.175781 283.394531 C 145.433594 281.890625 142.769531 278.679688 139.476562 275.324219 C 133.816406 269.554688 133.179688 268.351562 134.933594 266.765625 C 136.898438 264.984375 138.3125 265.644531 143.375 270.707031 C 148.457031 275.789062 151.816406 280.453125 152.832031 283.828125 C 153.625 286.484375 153.585938 301.65625 152.761719 309.074219 C 152.425781 312.09375 152.265625 314.675781 152.402344 314.816406 C 152.839844 315.253906 159.929688 312.914062 162.25 311.570312 C 165.363281 309.769531 168.289062 307.007812 169.40625 304.816406 C 171.015625 301.65625 171.878906 290.527344 172.726562 261.878906 L 173.0625 250.503906 L 162.507812 250.507812 C 150.914062 250.511719 148.367188 250.101562 142.175781 247.214844 C 136.253906 244.453125 129.613281 236.492188 124.617188 226.15625 C 121.710938 220.148438 121.449219 218.84375 122.867188 217.429688 C 123.574219 216.722656 124.445312 216.390625 125.320312 216.492188 C 126.515625 216.628906 127.078125 217.449219 129.964844 223.238281 C 133.910156 231.148438 136.472656 234.957031 140.257812 238.53125 C 144.710938 242.730469 148.777344 244.082031 158.269531 244.511719 C 163.566406 244.753906 172.109375 244.214844 172.65625 243.605469 C 172.738281 243.511719 172.972656 234.996094 173.171875 224.683594 L 173.535156 205.933594 L 168.304688 205.644531 C 159.96875 205.183594 149.417969 202.042969 147.9375 199.585938 C 147.234375 198.417969 148.546875 195.984375 149.992188 195.773438 C 150.5625 195.691406 152.714844 196.1875 154.777344 196.875 C 160.121094 198.65625 165.753906 199.714844 169.875 199.714844 L 173.433594 199.714844 L 173.433594 152.457031 L 171.976562 149.425781 C 171.179688 147.757812 169.757812 145.667969 168.820312 144.78125 C 164.464844 140.667969 156.695312 137.4375 149.117188 136.589844 C 143.542969 135.964844 141.933594 134.390625 143.941406 131.523438 C 144.742188 130.382812 144.964844 130.34375 149.125 130.632812 C 156.875 131.167969 166.554688 134.742188 171.296875 138.820312 L 173.453125 140.675781 L 173.316406 107.558594 C 173.160156 69.28125 173.941406 74.070312 166.859375 67.941406 C 164.402344 65.820312 160.875 63.402344 158.402344 62.148438 C 154.382812 60.109375 153.90625 59.988281 149.265625 59.867188 C 146.335938 59.789062 143.050781 60.03125 141.085938 60.472656 M 265.9375 88.394531 C 263.351562 89.695312 261.886719 92.175781 261.867188 95.292969 L 261.851562 97.871094 L 254.527344 104.1875 C 250.5 107.664062 246.925781 110.425781 246.582031 110.328125 C 241.226562 108.765625 236.105469 112.230469 236.105469 117.414062 C 236.105469 119.960938 236.742188 121.441406 238.589844 123.183594 L 240.152344 124.65625 L 240.152344 151.078125 L 238.960938 151.855469 C 236.25 153.632812 235.289062 158.6875 237.097656 161.65625 C 239.78125 166.058594 245.527344 166.777344 249.144531 163.15625 C 250.644531 161.65625 250.964844 160.941406 251.15625 158.640625 C 251.429688 155.3125 250.476562 153.1875 247.976562 151.566406 L 246.230469 150.4375 L 246.214844 124.9375 L 247.65625 124.191406 C 249.746094 123.113281 250.898438 121.035156 251.230469 117.757812 L 251.523438 114.878906 L 258.769531 108.550781 C 265.351562 102.804688 266.128906 102.269531 267.269531 102.703125 C 267.957031 102.964844 269.160156 103.179688 269.941406 103.179688 C 271.15625 103.179688 272.496094 104.503906 279.253906 112.402344 L 287.152344 121.625 L 286.84375 123.972656 C 286.203125 128.835938 288.960938 132.449219 293.621094 132.851562 C 298.191406 133.242188 301.816406 129.976562 301.8125 125.46875 C 301.808594 121.070312 298.570312 117.839844 294.164062 117.835938 L 291.824219 117.835938 L 284.058594 108.722656 C 279.167969 102.984375 276.355469 99.285156 276.472656 98.738281 C 277.179688 95.375 277.035156 92.730469 276.0625 91.167969 C 273.921875 87.738281 269.601562 86.554688 265.9375 88.394531 M 262.898438 133.9375 C 260.917969 135 258.851562 138.441406 258.851562 140.675781 C 258.851562 144.160156 261.238281 147.121094 264.941406 148.226562 C 266.511719 148.699219 267.285156 148.644531 269.308594 147.917969 L 271.765625 147.035156 L 287.167969 154.234375 C 295.640625 158.191406 302.863281 161.664062 303.222656 161.949219 C 303.6875 162.320312 303.828125 163.828125 303.726562 167.316406 L 303.582031 172.167969 L 279.199219 172.441406 L 272.453125 179.347656 C 265.710938 186.25 265.707031 186.253906 263.328125 186.289062 C 260.636719 186.328125 258.765625 187.453125 256.957031 190.109375 C 253.816406 194.722656 257.566406 201.4375 263.273438 201.417969 C 266.308594 201.40625 268.554688 200.242188 269.980469 197.929688 C 270.898438 196.445312 271.058594 195.582031 270.882812 193.109375 L 270.664062 190.09375 L 276.175781 184.292969 L 281.683594 178.488281 L 303.835938 178.488281 L 303.835938 199.851562 L 300.042969 204.03125 L 296.246094 208.210938 L 293.34375 207.972656 C 289.734375 207.675781 287.402344 208.804688 285.773438 211.644531 C 283.644531 215.363281 284.628906 219.417969 288.332031 222.160156 C 290.300781 223.621094 294.621094 223.628906 296.566406 222.175781 C 299.121094 220.269531 300.042969 218.554688 300.085938 215.625 L 300.125 212.910156 L 305.019531 207.625 L 309.910156 202.339844 L 309.78125 180.191406 L 309.648438 158.046875 L 292.21875 149.882812 L 274.792969 141.722656 L 274.394531 139.808594 C 273.207031 134.09375 267.777344 131.320312 262.898438 133.9375 M 190.109375 194.28125 C 187.429688 196.105469 186.378906 197.886719 186.378906 200.609375 C 186.378906 203.425781 187.535156 205.671875 189.714844 207.074219 L 191.234375 208.054688 L 190.539062 294.992188 L 201.726562 306.867188 C 207.878906 313.402344 213.480469 319.257812 214.175781 319.882812 L 215.441406 321.019531 L 255.804688 321.019531 L 258.972656 316.660156 C 272.261719 298.351562 272.324219 298.277344 274.382812 298.273438 C 279.925781 298.269531 283.484375 291.136719 280.171875 286.664062 C 278.296875 284.125 276.023438 283.003906 273.222656 283.226562 C 270.082031 283.480469 268.308594 284.695312 266.886719 287.566406 C 265.828125 289.703125 265.8125 290.230469 266.707031 294.230469 C 266.941406 295.269531 265.722656 297.226562 259.84375 305.234375 L 252.695312 314.976562 L 231.8125 314.703125 L 231.675781 301.328125 L 231.542969 287.953125 L 233.074219 286.753906 C 239.019531 282.101562 236.121094 273.003906 228.695312 273.003906 C 222.746094 273.003906 219.140625 279.007812 222.019531 284.128906 C 222.609375 285.183594 223.632812 286.332031 224.292969 286.683594 L 225.492188 287.328125 L 225.492188 314.953125 L 221.710938 314.953125 C 217.246094 314.953125 218.828125 316.199219 205.851562 302.496094 L 196.683594 292.8125 L 196.691406 272.925781 C 196.695312 261.988281 196.835938 252.527344 197 251.902344 C 197.300781 250.789062 197.46875 250.765625 204.480469 250.765625 L 211.65625 250.765625 L 212.8125 252.328125 C 214.984375 255.265625 219.734375 256.203125 222.84375 254.304688 C 227.726562 251.328125 227.726562 244.136719 222.84375 241.160156 C 219.574219 239.164062 214.648438 240.246094 212.574219 243.410156 C 211.734375 244.691406 211.691406 244.699219 204.460938 244.699219 L 197.1875 244.699219 L 197.1875 207.917969 L 198.496094 207.0625 C 199.96875 206.097656 201.710938 202.65625 201.726562 200.679688 C 201.746094 198.585938 199.625 195.121094 197.691406 194.082031 C 195.28125 192.792969 192.179688 192.875 190.109375 194.28125 M 222.457031 200.851562 C 221.535156 201.480469 220.320312 202.613281 219.757812 203.378906 C 218.394531 205.21875 218.375 209.039062 219.722656 211.378906 C 220.847656 213.339844 224.386719 215.371094 226.738281 215.410156 C 228.089844 215.429688 228.832031 216.152344 232.976562 221.472656 L 237.679688 227.515625 L 256.324219 227.515625 L 256.324219 238.058594 L 254.800781 239.144531 C 248.90625 243.34375 252.058594 252.78125 259.355469 252.78125 C 265.0625 252.78125 268.59375 247.078125 266.117188 241.859375 C 265.667969 240.910156 264.644531 239.664062 263.84375 239.09375 C 262.402344 238.066406 262.390625 238.019531 262.390625 232.789062 L 262.390625 227.515625 L 274.320312 227.515625 L 286.59375 236.433594 C 293.34375 241.339844 298.976562 245.632812 299.109375 245.980469 C 299.242188 246.324219 297.457031 251.125 295.144531 256.648438 L 290.9375 266.6875 L 276.949219 266.820312 L 262.964844 266.953125 L 260.824219 264.667969 C 256.484375 260.039062 250.625 260.757812 247.792969 266.273438 C 246.941406 267.933594 247.109375 271.035156 248.164062 273 C 249.171875 274.875 252.636719 277.046875 254.625 277.046875 C 256.640625 277.046875 259.832031 275.480469 260.914062 273.957031 L 261.953125 272.5 L 278.542969 272.5 C 291.34375 272.5 295.191406 272.355469 295.386719 271.867188 C 295.523438 271.519531 298.078125 265.320312 301.0625 258.09375 C 304.046875 250.867188 306.589844 244.691406 306.710938 244.375 C 306.835938 244.058594 300.265625 238.957031 292.117188 233.042969 C 283.96875 227.128906 277.015625 222.074219 276.664062 221.804688 C 276.292969 221.519531 268.714844 221.296875 258.234375 221.257812 L 240.4375 221.195312 L 236.769531 216.648438 C 234.363281 213.660156 233.21875 211.839844 233.4375 211.339844 C 233.621094 210.925781 233.851562 209.332031 233.949219 207.804688 C 234.085938 205.667969 233.886719 204.640625 233.097656 203.375 C 230.84375 199.753906 225.820312 198.5625 222.457031 200.851562 " fill-opacity="1" fill-rule="evenodd"/></svg>