<svg xmlns="http://www.w3.org/2000/svg" width="500" zoomAndPan="magnify" viewBox="0 0 375 375" height="500" preserveAspectRatio="xMidYMid meet" xmlns:v="https://vecta.io/nano"><g fill="#fff"><path d="M-37.5-37.5h450v450h-450z"/><path d="M-37.5-37.5h450v450h-450z"/><path d="M-56.453 1.461l.246 55.977c1.434-17.672 5.617-32.621 13.406-47.906C-27.789-19.918-.426-42.418 31.715-51.742c6.164-1.789 16.254-3.797 21.426-4.266 2.363-.215-21.348-.422-52.691-.461l-56.988-.07.086 58m378.23-57.469c5.641.543 12.16 1.766 18.805 3.527 49.066 13.012 85.031 55.063 90.117 105.367.398 3.969.516 43.457.406 137.984l-.152 132.422-1.18 6.254c-5.02 26.68-16.324 48.336-34.754 66.594-15.496 15.352-35.836 26.645-57.113 31.715-13.742 3.27-1.965 3.012-146.531 3.219-95.059.133-133.02.027-137.223-.387-42.727-4.187-79.309-29.531-98.09-67.953-7.098-14.52-10.902-28.625-12.27-45.504-.09-1.113-.199 24.191-.246 56.23l-.086 58.25h244.094l244.328-.379c.125-.211.105-110.066-.051-244.125l-.277-243.746-56.91.074-52.867.457M214.012 58.484l-14.77 5.227-2.316-1.023c-3.5-1.551-7.359-.359-9.375 2.895-1.945 3.141-.836 8.754 2.027 10.289 1.039.555 1.039.617 1.039 52.848v52.297l14.785.004h14.785l.836 1.473c2.52 4.43 9.617 4.688 12.719.457 1.402-1.914 1.645-5.781.496-7.988-2.492-4.809-9.371-5.504-12.691-1.285l-1 1.273h-23.875l.133-18.32.133-18.324 8.676-.137 8.676-.141 1.059 1.492c1.332 1.867 4.949 3.316 7.219 2.887 5.137-.969 8.02-6.453 5.727-10.891-2.656-5.133-8.824-5.891-12.547-1.539l-1.723 2.012h-17.34V77.246l2.016-1.727c1.391-1.187 2.23-2.453 2.699-4.059l.68-2.332 11.832-4.176c6.512-2.301 12.203-4.191 12.652-4.203.504-.02 3.172 3.352 6.902 8.715 8.242 11.84 8.266 10.633-.379 19.297l-6.785 6.797-2.805-.258c-2.316-.215-3.148-.059-4.773.902-5.004 2.953-5.105 10.043-.184 13.043 2.504 1.527 6.434 1.379 8.449-.316 2.078-1.746 3.055-3.734 3.055-6.203 0-1.953.246-2.25 7.656-9.125 7.125-6.609 7.797-7.102 9.629-7.102 5.66 0 9.336-5.645 7.047-10.82-1.406-3.184-3.535-4.437-7.148-4.207-1.527.098-3.141.344-3.586.547-.629.293-2.258-1.719-7.492-9.254-3.676-5.293-6.84-9.598-7.027-9.566s-6.988 2.41-15.109 5.285m-71.664-4.09c-16.305 2.617-26.715 13.809-24.535 26.379.328 1.898 1.129 4.773 1.781 6.387l1.18 2.938-1.594-.41c-.879-.227-3.418-.402-5.641-.398-5.047.016-8.418 1.469-12.195 5.254-5.008 5.023-7.41 11.391-7.449 19.754-.027 5.379.102 5.906 3.023 12.449.156.352-.594.695-1.957.898-3.359.504-8.16 3.004-10.754 5.598-3.211 3.211-6.133 9.438-6.883 14.668-.477 3.305-.445 4.711.164 7.719l.746 3.68-1.664 1.027c-5.328 3.293-9.277 11.355-9.277 18.934 0 3.711 1.543 10.086 3.328 13.75 1.434 2.941 5.445 7.598 7.484 8.688 1.672.895 1.664 1.352-.027 1.773-2.473.621-7.027 5.926-9.465 11.023-2.848 5.949-3.543 9.008-3.473 15.285.102 9.453 3.367 18.086 9.043 23.879 3.473 3.547 5.652 4.68 9.012 4.68 1.262 0 2.293.055 2.293.125s-.48 1.379-1.07 2.906c-1.566 4.082-1.477 9.453.227 13.27 1.516 3.402 5.473 7.785 9.516 10.535 3.375 2.297 10.363 5.824 15.359 7.754l3.566 1.375 1.203 3.543c5.789 16.992 21.941 26.297 39.793 22.91 7.453-1.414 13.023-4.191 17.43-8.691 3.328-3.398 4.777-6.891 5.418-13.039 1.902-18.289 2.66-65.172 2.473-153.148l-.156-72.781-1.371-2.336c-2.406-4.09-10.371-10.707-16.766-13.934-6.008-3.031-11.023-3.684-18.762-2.441m-1.262 6.078c-7.004 1.566-14.109 6.371-16.445 11.117-1.48 3.012-1.359 9.188.254 12.887 1.758 4.027 3.988 7.395 7.789 11.75 3.648 4.184 4.156 5.82 2.223 7.176-1.73 1.211-2.387 1-6.461-2.074-9.77-7.371-17.855-8.234-23.168-2.469-4.859 5.27-6.918 14.008-4.891 20.781 1.77 5.922 14.477 26.297 21.887 35.09 6.387 7.586 10.066 9.875 16.797 10.457 2.457.215 4.41.004 7.734-.828 3.586-.898 4.59-.992 5.203-.484 1.336 1.109 1.746 2.336 1.227 3.691-.383 1.016-1.234 1.512-4.168 2.434-3.035.953-4.73 1.148-9.613 1.102-3.258-.031-5.816.117-5.684.332s-.973 3.086-2.457 6.379-3.457 8.145-4.383 10.785-2.02 5.199-2.434 5.684c-1.633 1.922-4.641.41-4.641-2.336 0-1.895 3.09-10.02 6.504-17.094l2.848-5.91-1.516-.875c-5.441-3.145-16.945-17.445-25.031-31.117-1.777-3.004-2.488-3.426-5.766-3.437-6.187-.023-12.766 7.582-13.742 15.879-.844 7.188 3.242 14.691 10.738 19.715 1.633 1.094 3.254 2.332 3.602 2.75 1.516 1.824.172 4.609-2.219 4.609-2.219 0-9.781-5.738-12.566-9.531-.832-1.137-1.762-2.074-2.062-2.082-1.07-.023-4.414 3.82-5.703 6.559-2.617 5.543-1.504 15.359 2.371 20.973 3.07 4.441 9.629 7.75 17.02 8.586 4.488.508 6.316 1.199 6.844 2.586.555 1.465-.102 3.473-1.285 3.926-.461.18-4.078.324-8.035.324-8.844 0-11.551.668-14.086 3.477-2.359 2.609-4.098 5.68-5.465 9.664-1.66 4.816-1.559 12.379.238 17.98 2.246 7.008 7.301 13.355 10.633 13.355 3.211 0 11.586-5.969 16.863-12.012 4.629-5.305 5.047-5.68 6.371-5.68 1.406 0 2.832 1.664 2.832 3.301 0 .633-2.348 3.676-5.859 7.598-10.734 11.973-13.41 16.211-13.766 21.781-.16 2.504.027 3.629.914 5.457 2.277 4.703 9.242 9.504 20.32 14 3.414 1.387 6.484 2.75 6.82 3.031s1.195 2.262 1.91 4.41c1.426 4.277 4.133 9.188 6.773 12.27 2.176 2.539 6.82 5.695 10.27 6.973 2.688 1 8.473 2.113 9.074 1.754.672-.406 1.645-12.461 1.676-20.68.027-8.109-.039-8.73-1.199-11.09-.742-1.504-3.406-4.715-6.699-8.07-5.66-5.77-6.297-6.973-4.543-8.559 1.965-1.781 3.379-1.121 8.441 3.941 5.082 5.082 8.441 9.746 9.457 13.121.793 2.656.754 17.828-.07 25.246-.336 3.02-.496 5.602-.359 5.742.438.438 7.527-1.902 9.848-3.246 3.113-1.801 6.039-4.562 7.156-6.754 1.609-3.16 2.473-14.289 3.32-42.937l.336-11.375-10.555.004c-11.594.004-14.141-.406-20.332-3.293-5.922-2.762-12.562-10.723-17.559-21.059-2.906-6.008-3.168-7.312-1.75-8.727.707-.707 1.578-1.039 2.453-.937 1.195.137 1.758.957 4.645 6.746 3.945 7.91 6.508 11.719 10.293 15.293 4.453 4.199 8.52 5.551 18.012 5.98 5.297.242 13.84-.297 14.387-.906.082-.094.316-8.609.516-18.922l.363-18.75-5.23-.289c-8.336-.461-18.887-3.602-20.367-6.059-.703-1.168.609-3.602 2.055-3.812.57-.082 2.723.414 4.785 1.102 5.344 1.781 10.977 2.84 15.098 2.84h3.559v-47.258l-1.457-3.031c-.797-1.668-2.219-3.758-3.156-4.645-4.355-4.113-12.125-7.344-19.703-8.191-5.574-.625-7.184-2.199-5.176-5.066.801-1.141 1.023-1.18 5.184-.891 7.75.535 17.43 4.109 22.172 8.188l2.156 1.855-.137-33.117c-.156-38.277.625-33.488-6.457-39.617-2.457-2.121-5.984-4.539-8.457-5.793-4.02-2.039-4.496-2.16-9.137-2.281-2.93-.078-6.215.164-8.18.605m124.852 27.922c-2.586 1.301-4.051 3.781-4.07 6.898l-.016 2.578-7.324 6.316c-4.027 3.477-7.602 6.238-7.945 6.141-5.355-1.562-10.477 1.902-10.477 7.086 0 2.547.637 4.027 2.484 5.77l1.563 1.473v26.422l-1.191.777c-2.711 1.777-3.672 6.832-1.863 9.801 2.684 4.402 8.43 5.121 12.047 1.5 1.5-1.5 1.82-2.215 2.012-4.516.273-3.328-.68-5.453-3.18-7.074l-1.746-1.129-.016-25.5 1.441-.746c2.09-1.078 3.242-3.156 3.574-6.434l.293-2.879 7.246-6.328c6.582-5.746 7.359-6.281 8.5-5.848a9.01 9.01 0 0 0 2.672.477c1.215 0 2.555 1.324 9.313 9.223l7.898 9.223-.309 2.348c-.641 4.863 2.117 8.477 6.777 8.879 4.57.391 8.195-2.875 8.191-7.383-.004-4.398-3.242-7.629-7.648-7.633h-2.34l-7.766-9.113c-4.891-5.738-7.703-9.437-7.586-9.984.707-3.363.563-6.008-.41-7.57-2.141-3.43-6.461-4.613-10.125-2.773m-3.039 45.543c-1.98 1.063-4.047 4.504-4.047 6.738 0 3.484 2.387 6.445 6.09 7.551 1.57.473 2.344.418 4.367-.309l2.457-.883 15.402 7.199 16.055 7.715c.465.371.605 1.879.504 5.367l-.145 4.852-24.383.273-6.746 6.906c-6.742 6.902-6.746 6.906-9.125 6.941-2.691.039-4.562 1.164-6.371 3.82-3.141 4.613.609 11.328 6.316 11.309 3.035-.012 5.281-1.176 6.707-3.488.918-1.484 1.078-2.348.902-4.82l-.219-3.016 5.512-5.801 5.508-5.805h22.152v21.363l-3.793 4.18-3.797 4.18-2.902-.238c-3.609-.297-5.941.832-7.57 3.672-2.129 3.719-1.145 7.773 2.559 10.516 1.969 1.461 6.289 1.469 8.234.016 2.555-1.906 3.477-3.621 3.52-6.551l.039-2.715 4.895-5.285 4.891-5.285-.129-22.148-.133-22.145-17.43-8.164-17.426-8.16-.398-1.914c-1.187-5.715-6.617-8.488-11.496-5.871m-72.789 60.344c-2.68 1.824-3.73 3.605-3.73 6.328 0 2.816 1.156 5.063 3.336 6.465l1.52.98-.695 86.938 11.188 11.875 12.449 13.016 1.266 1.137h40.363l3.168-4.359c13.289-18.309 13.352-18.383 15.41-18.387 5.543-.004 9.102-7.137 5.789-11.609-1.875-2.539-4.148-3.66-6.949-3.437-3.141.254-4.914 1.469-6.336 4.34-1.059 2.137-1.074 2.664-.18 6.664.234 1.039-.984 2.996-6.863 11.004l-7.148 9.742-20.883-.273-.137-13.375-.133-13.375 1.531-1.199c5.945-4.652 3.047-13.75-4.379-13.75-5.949 0-9.555 6.004-6.676 11.125.59 1.055 1.613 2.203 2.273 2.555l1.199.645v27.625h-3.781c-4.465 0-2.883 1.246-15.859-12.457l-9.168-9.684.008-19.887.309-21.023c.301-1.113.469-1.137 7.48-1.137h7.176l1.156 1.563c2.172 2.938 6.922 3.875 10.031 1.977 4.883-2.977 4.883-10.168 0-13.145-3.27-1.996-8.195-.914-10.27 2.25-.84 1.281-.883 1.289-8.113 1.289h-7.273v-36.781l1.309-.855c1.473-.965 3.215-4.406 3.23-6.383.02-2.094-2.102-5.559-4.035-6.598-2.41-1.289-5.512-1.207-7.582.199m32.348 6.57c-.922.629-2.137 1.762-2.699 2.527-1.363 1.84-1.383 5.66-.035 8 1.125 1.961 4.664 3.992 7.016 4.031 1.352.02 2.094.742 6.238 6.063l4.703 6.043h18.645v10.543l-1.523 1.086c-5.895 4.199-2.742 13.637 4.555 13.637 5.707 0 9.238-5.703 6.762-10.922-.449-.949-1.473-2.195-2.273-2.766-1.441-1.027-1.453-1.074-1.453-6.305v-5.273h11.93l12.273 8.918c6.75 4.906 12.383 9.199 12.516 9.547s-1.652 5.145-3.965 10.668l-4.207 10.039-13.988.133-13.984.133-2.141-2.285c-4.34-4.629-10.199-3.91-13.031 1.605-.852 1.66-.684 4.762.371 6.727 1.008 1.875 4.473 4.047 6.461 4.047 2.016 0 5.207-1.566 6.289-3.09l1.039-1.457h16.59c12.801 0 16.648-.145 16.844-.633.137-.348 2.691-6.547 5.676-13.773l5.648-13.719c.125-.316-6.445-5.418-14.594-11.332l-15.453-11.238c-.371-.285-7.949-.508-18.43-.547l-17.797-.062-3.668-4.547c-2.406-2.988-3.551-4.809-3.332-5.309.184-.414.414-2.008.512-3.535.137-2.137-.062-3.164-.852-4.43-2.254-3.621-7.277-4.812-10.641-2.523M-56.297 373.586l.137 29.188v-58.375c-.074-16.055-.137-2.922-.137 29.188" fill-rule="evenodd"/></g><path fill="#ee2a47" d="M53.141-56.016c-13.141 1.211-29 5.887-42.203 12.445C-25.43-25.504-50.129 9.543-55.617 50.867c-.988 7.465-.988 265.484.004 272.934 3.754 28.223 16.629 54.148 36.285 73.055 20.09 19.324 45.672 31.105 73.48 33.832 4.203.414 42.164.52 137.223.387 144.566-.207 132.789.051 146.531-3.219 21.277-5.07 41.617-16.363 57.113-31.715 18.43-18.258 29.734-39.914 34.754-66.594l1.18-6.254.152-132.422-.406-137.984c-5.086-50.305-41.078-92.383-90.117-105.363a216.63 216.63 0 0 0-11.477-2.637l-5.812-1.141-132.926-.078c-73.113-.043-134.863.102-137.227.316m160.871 114.5l-14.77 5.227-2.316-1.023c-3.5-1.551-7.359-.359-9.375 2.895-1.945 3.141-.836 8.754 2.027 10.289 1.039.555 1.039.617 1.039 52.848v52.297l14.785.004h14.785l.836 1.473c2.52 4.43 9.617 4.688 12.719.457 1.402-1.914 1.645-5.781.496-7.988-2.492-4.809-9.371-5.504-12.691-1.285l-1 1.273h-23.875l.133-18.32.133-18.324 8.676-.137 8.676-.141 1.059 1.492c1.332 1.867 4.949 3.316 7.219 2.887 5.137-.969 8.02-6.453 5.727-10.891-2.656-5.133-8.824-5.891-12.547-1.539l-1.723 2.012h-17.34V77.246l2.016-1.727c1.391-1.187 2.23-2.453 2.699-4.059l.68-2.332 11.832-4.176c6.512-2.301 12.203-4.191 12.652-4.203.504-.02 3.172 3.352 6.902 8.715 8.242 11.84 8.266 10.633-.379 19.297l-6.785 6.797-2.805-.258c-2.316-.215-3.148-.059-4.773.902-5.004 2.953-5.105 10.043-.184 13.043 2.504 1.527 6.434 1.379 8.449-.316 2.078-1.746 3.055-3.734 3.055-6.203 0-1.953.246-2.25 7.656-9.125 7.125-6.609 7.797-7.102 9.629-7.102 5.66 0 9.336-5.645 7.047-10.82-1.406-3.184-3.535-4.437-7.148-4.207-1.527.098-3.141.344-3.586.547-.629.293-2.258-1.719-7.492-9.254-3.676-5.293-6.84-9.598-7.027-9.566s-6.988 2.41-15.109 5.285m-71.664-4.09c-16.305 2.617-26.715 13.809-24.535 26.379.328 1.898 1.129 4.773 1.781 6.387l1.18 2.938-1.594-.41c-.879-.227-3.418-.402-5.641-.398-5.047.016-8.418 1.469-12.195 5.254-5.008 5.023-7.41 11.391-7.449 19.754-.027 5.379.102 5.906 3.023 12.449.156.352-.594.695-1.957.898-3.359.504-8.16 3.004-10.754 5.598-3.211 3.211-6.133 9.438-6.883 14.668-.477 3.305-.445 4.711.164 7.719l.746 3.68-1.664 1.027c-5.328 3.293-9.277 11.355-9.277 18.934 0 3.711 1.543 10.086 3.328 13.75 1.434 2.941 5.445 7.598 7.484 8.688 1.672.895 1.664 1.352-.027 1.773-2.473.621-7.027 5.926-9.465 11.023-2.848 5.949-3.543 9.008-3.473 15.285.102 9.453 3.367 18.086 9.043 23.879 3.473 3.547 5.652 4.68 9.012 4.68 1.262 0 2.293.055 2.293.125s-.48 1.379-1.07 2.906c-1.566 4.082-1.477 9.453.227 13.27 1.516 3.402 5.473 7.785 9.516 10.535 3.375 2.297 10.363 5.824 15.359 7.754l3.566 1.375 1.203 3.543c5.789 16.992 21.941 26.297 39.793 22.91 7.453-1.414 13.023-4.191 17.43-8.691 3.328-3.398 4.777-6.891 5.418-13.039 1.902-18.289 2.66-65.172 2.473-153.148l-.156-72.781-1.371-2.336c-2.406-4.09-10.371-10.707-16.766-13.934-6.008-3.031-11.023-3.684-18.762-2.441m-1.262 6.078c-7.004 1.566-14.109 6.371-16.445 11.117-1.48 3.012-1.359 9.188.254 12.887 1.758 4.027 3.988 7.395 7.789 11.75 3.648 4.184 4.156 5.82 2.223 7.176-1.73 1.211-2.387 1-6.461-2.074-9.77-7.371-17.855-8.234-23.168-2.469-4.859 5.27-6.918 14.008-4.891 20.781 1.77 5.922 14.477 26.297 21.887 35.09 6.387 7.586 10.066 9.875 16.797 10.457 2.457.215 4.41.004 7.734-.828 3.586-.898 4.59-.992 5.203-.484 1.336 1.109 1.746 2.336 1.227 3.691-.383 1.016-1.234 1.512-4.168 2.434-3.035.953-4.73 1.148-9.613 1.102-3.258-.031-5.816.117-5.684.332s-.973 3.086-2.457 6.379-3.457 8.145-4.383 10.785-2.02 5.199-2.434 5.684c-1.633 1.922-4.641.41-4.641-2.336 0-1.895 3.09-10.02 6.504-17.094l2.848-5.91-1.516-.875c-5.441-3.145-16.945-17.445-25.031-31.117-1.777-3.004-2.488-3.426-5.766-3.437-6.187-.023-12.766 7.582-13.742 15.879-.844 7.188 3.242 14.691 10.738 19.715 1.633 1.094 3.254 2.332 3.602 2.75 1.516 1.824.172 4.609-2.219 4.609-2.219 0-9.781-5.738-12.566-9.531-.832-1.137-1.762-2.074-2.062-2.082-1.07-.023-4.414 3.82-5.703 6.559-2.617 5.543-1.504 15.359 2.371 20.973 3.07 4.441 9.629 7.75 17.02 8.586 4.488.508 6.316 1.199 6.844 2.586.555 1.465-.102 3.473-1.285 3.926-.461.18-4.078.324-8.035.324-8.844 0-11.551.668-14.086 3.477-2.359 2.609-4.098 5.68-5.465 9.664-1.66 4.816-1.559 12.379.238 17.98 2.246 7.008 7.301 13.355 10.633 13.355 3.211 0 11.586-5.969 16.863-12.012 4.629-5.305 5.047-5.68 6.371-5.68 1.406 0 2.832 1.664 2.832 3.301 0 .633-2.348 3.676-5.859 7.598-10.734 11.973-13.41 16.211-13.766 21.781-.16 2.504.027 3.629.914 5.457 2.277 4.703 9.242 9.504 20.32 14 3.414 1.387 6.484 2.75 6.82 3.031s1.195 2.262 1.91 4.41c1.426 4.277 4.133 9.188 6.773 12.27 2.176 2.539 6.82 5.695 10.27 6.973 2.688 1 8.473 2.113 9.074 1.754.672-.406 1.645-12.461 1.676-20.68.027-8.109-.039-8.73-1.199-11.09-.742-1.504-3.406-4.715-6.699-8.07-5.66-5.77-6.297-6.973-4.543-8.559 1.965-1.781 3.379-1.121 8.441 3.941 5.082 5.082 8.441 9.746 9.457 13.121.793 2.656.754 17.828-.07 25.246-.336 3.02-.496 5.602-.359 5.742.438.438 7.527-1.902 9.848-3.246 3.113-1.801 6.039-4.562 7.156-6.754 1.609-3.16 2.473-14.289 3.32-42.937l.336-11.375-10.555.004c-11.594.004-14.141-.406-20.332-3.293-5.922-2.762-12.562-10.723-17.559-21.059-2.906-6.008-3.168-7.312-1.75-8.727.707-.707 1.578-1.039 2.453-.937 1.195.137 1.758.957 4.645 6.746 3.945 7.91 6.508 11.719 10.293 15.293 4.453 4.199 8.52 5.551 18.012 5.98 5.297.242 13.84-.297 14.387-.906.082-.094.316-8.609.516-18.922l.363-18.75-5.23-.289c-8.336-.461-18.887-3.602-20.367-6.059-.703-1.168.609-3.602 2.055-3.812.57-.082 2.723.414 4.785 1.102 5.344 1.781 10.977 2.84 15.098 2.84h3.559v-47.258l-1.457-3.031c-.797-1.668-2.219-3.758-3.156-4.645-4.355-4.113-12.125-7.344-19.703-8.191-5.574-.625-7.184-2.199-5.176-5.066.801-1.141 1.023-1.18 5.184-.891 7.75.535 17.43 4.109 22.172 8.188l2.156 1.855-.137-33.117c-.156-38.277.625-33.488-6.457-39.617-2.457-2.121-5.984-4.539-8.457-5.793-4.02-2.039-4.496-2.16-9.137-2.281-2.93-.078-6.215.164-8.18.605m124.852 27.922c-2.586 1.301-4.051 3.781-4.07 6.898l-.016 2.578-7.324 6.316c-4.027 3.477-7.602 6.238-7.945 6.141-5.355-1.562-10.477 1.902-10.477 7.086 0 2.547.637 4.027 2.484 5.77l1.563 1.473v26.422l-1.191.777c-2.711 1.777-3.672 6.832-1.863 9.801 2.684 4.402 8.43 5.121 12.047 1.5 1.5-1.5 1.82-2.215 2.012-4.516.273-3.328-.68-5.453-3.18-7.074l-1.746-1.129-.016-25.5 1.441-.746c2.09-1.078 3.242-3.156 3.574-6.434l.293-2.879 7.246-6.328c6.582-5.746 7.359-6.281 8.5-5.848a9.01 9.01 0 0 0 2.672.477c1.215 0 2.555 1.324 9.313 9.223l7.898 9.223-.309 2.348c-.641 4.863 2.117 8.477 6.777 8.879 4.57.391 8.195-2.875 8.191-7.383-.004-4.398-3.242-7.629-7.648-7.633h-2.34l-7.766-9.113c-4.891-5.738-7.703-9.437-7.586-9.984.707-3.363.563-6.008-.41-7.57-2.141-3.43-6.461-4.613-10.125-2.773m-3.039 45.543c-1.98 1.063-4.047 4.504-4.047 6.738 0 3.484 2.387 6.445 6.09 7.551 1.57.473 2.344.418 4.367-.309l2.457-.883 15.402 7.199 16.055 7.715c.465.371.605 1.879.504 5.367l-.145 4.852-24.383.273-6.746 6.906c-6.742 6.902-6.746 6.906-9.125 6.941-2.691.039-4.562 1.164-6.371 3.82-3.141 4.613.609 11.328 6.316 11.309 3.035-.012 5.281-1.176 6.707-3.488.918-1.484 1.078-2.348.902-4.82l-.219-3.016 5.512-5.801 5.508-5.805h22.152v21.363l-3.793 4.18-3.797 4.18-2.902-.238c-3.609-.297-5.941.832-7.57 3.672-2.129 3.719-1.145 7.773 2.559 10.516 1.969 1.461 6.289 1.469 8.234.016 2.555-1.906 3.477-3.621 3.52-6.551l.039-2.715 4.895-5.285 4.891-5.285-.129-22.148-.133-22.145-17.43-8.164-17.426-8.16-.398-1.914c-1.187-5.715-6.617-8.488-11.496-5.871m-72.789 60.344c-2.68 1.824-3.73 3.605-3.73 6.328 0 2.816 1.156 5.063 3.336 6.465l1.52.98-.695 86.938 11.188 11.875 12.449 13.016 1.266 1.137h40.363l3.168-4.359c13.289-18.309 13.352-18.383 15.41-18.387 5.543-.004 9.102-7.137 5.789-11.609-1.875-2.539-4.148-3.66-6.949-3.437-3.141.254-4.914 1.469-6.336 4.34-1.059 2.137-1.074 2.664-.18 6.664.234 1.039-.984 2.996-6.863 11.004l-7.148 9.742-20.883-.273-.137-13.375-.133-13.375 1.531-1.199c5.945-4.652 3.047-13.75-4.379-13.75-5.949 0-9.555 6.004-6.676 11.125.59 1.055 1.613 2.203 2.273 2.555l1.199.645v27.625h-3.781c-4.465 0-2.883 1.246-15.859-12.457l-9.168-9.684.008-19.887.309-21.023c.301-1.113.469-1.137 7.48-1.137h7.176l1.156 1.563c2.172 2.938 6.922 3.875 10.031 1.977 4.883-2.977 4.883-10.168 0-13.145-3.27-1.996-8.195-.914-10.27 2.25-.84 1.281-.883 1.289-8.113 1.289h-7.273v-36.781l1.309-.855c1.473-.965 3.215-4.406 3.23-6.383.02-2.094-2.102-5.559-4.035-6.598-2.41-1.289-5.512-1.207-7.582.199m32.348 6.57c-.922.629-2.137 1.762-2.699 2.527-1.363 1.84-1.383 5.66-.035 8 1.125 1.961 4.664 3.992 7.016 4.031 1.352.02 2.094.742 6.238 6.063l4.703 6.043h18.645v10.543l-1.523 1.086c-5.895 4.199-2.742 13.637 4.555 13.637 5.707 0 9.238-5.703 6.762-10.922-.449-.949-1.473-2.195-2.273-2.766-1.441-1.027-1.453-1.074-1.453-6.305v-5.273h11.93l12.273 8.918c6.75 4.906 12.383 9.199 12.516 9.547s-1.652 5.145-3.965 10.668l-4.207 10.039-13.988.133-13.984.133-2.141-2.285c-4.34-4.629-10.199-3.91-13.031 1.605-.852 1.66-.684 4.762.371 6.727 1.008 1.875 4.473 4.047 6.461 4.047 2.016 0 5.207-1.566 6.289-3.09l1.039-1.457h16.59c12.801 0 16.648-.145 16.844-.633.137-.348 2.691-6.547 5.676-13.773l5.648-13.719c.125-.316-6.445-5.418-14.594-11.332l-15.453-11.238c-.371-.285-7.949-.508-18.43-.547l-17.797-.062-3.668-4.547c-2.406-2.988-3.551-4.809-3.332-5.309.184-.414.414-2.008.512-3.535.137-2.137-.062-3.164-.852-4.43-2.254-3.621-7.277-4.812-10.641-2.523" fill-rule="evenodd"/></svg>